<svg xmlns="http://www.w3.org/2000/svg" width="16" height="16">
    <path fill="#241f31" d="M9.773 1.918c-1.808.066-3.77 1.008-5.308 2.547C2.12 6.816 1.28 10.02 2.457 12.133l-.113.11a1 1 0 1 0 1.414 1.413l.11-.113c2.112 1.176 5.316.336 7.667-2.008 2.352-2.351 3.195-5.558 2.02-7.676l.101-.101a1 1 0 1 0-1.414-1.414l-.11.113c-.671-.379-1.476-.562-2.359-.539zm-1.242 1.25a.5.5 0 0 1 .606.363.478.478 0 0 1-.055.38.476.476 0 0 1-.309.23c-1.976.496-4.136 2.656-4.632 4.632a.476.476 0 0 1-.23.309.478.478 0 0 1-.38.055.5.5 0 0 1-.363-.606c.309-1.218 1.035-2.406 1.996-3.367.961-.96 2.148-1.687 3.367-1.996zm0 0"/>
</svg>
