<?xml version="1.0" encoding="UTF-8"?>
<svg height="16px" viewBox="0 0 16 16" width="16px" xmlns="http://www.w3.org/2000/svg">
    <path d="m 2.233421 214.234082 h 3.784569 c 1.817632 0 3.278229 1.46153 3.278229 3.277094 v 5.001879 c 0 1.815564 -1.460597 3.277093 -3.278229 3.277093 h -3.784569 c -1.814386 0 -3.274983 -1.461529 -3.274983 -3.277093 v -5.001879 c 0 -1.815564 1.460597 -3.277094 3.274983 -3.277094 z m 0 0" fill-opacity="0.011765" stroke="#000000" stroke-width="0.882513" transform="matrix(1.203489 0 0 1.290921 3.042571 -275.953827)"/>
    <path d="m 4.929688 6.621094 c 0.546874 0 0.992187 1.148437 0.992187 2.574218 v 0.648438 c 0 1.425781 -0.445313 2.570312 -0.992187 2.570312 c -0.550782 0 -0.992188 -1.144531 -0.992188 -2.570312 v -0.648438 c 0 -1.425781 0.441406 -2.574218 0.992188 -2.574218 z m 0 0"/>
    <path d="m 7.984375 6.648438 c 0.550781 0 0.992187 1.148437 0.992187 2.574218 v 0.648438 c 0 1.425781 -0.441406 2.570312 -0.992187 2.570312 s -0.992187 -1.144531 -0.992187 -2.570312 v -0.648438 c 0 -1.425781 0.441406 -2.574218 0.992187 -2.574218 z m 0 0"/>
    <path d="m 10.929688 6.621094 c 0.546874 0 0.992187 1.148437 0.992187 2.574218 v 0.648438 c 0 1.425781 -0.445313 2.570312 -0.992187 2.570312 c -0.550782 0 -0.992188 -1.144531 -0.992188 -2.570312 v -0.648438 c 0 -1.425781 0.441406 -2.574218 0.992188 -2.574218 z m 0 0"/>
</svg>
