<?xml version="1.0" encoding="UTF-8" standalone="no"?>
<svg
   height="16px"
   viewBox="0 0 16 16"
   width="16px"
   version="1.1"
   id="svg40"
   sodipodi:docname="ml.mdwalters.Lemonade-symbolic.svg"
   inkscape:version="1.2.2 (b0a8486541, 2022-12-01)"
   xmlns:inkscape="http://www.inkscape.org/namespaces/inkscape"
   xmlns:sodipodi="http://sodipodi.sourceforge.net/DTD/sodipodi-0.dtd"
   xmlns="http://www.w3.org/2000/svg"
   xmlns:svg="http://www.w3.org/2000/svg">
  <defs
     id="defs44" />
  <sodipodi:namedview
     id="namedview42"
     pagecolor="#ffffff"
     bordercolor="#000000"
     borderopacity="0.25"
     inkscape:showpageshadow="2"
     inkscape:pageopacity="0.0"
     inkscape:pagecheckerboard="0"
     inkscape:deskcolor="#d1d1d1"
     showgrid="false"
     inkscape:zoom="29.75"
     inkscape:cx="8.0168067"
     inkscape:cy="9.0420168"
     inkscape:window-width="1366"
     inkscape:window-height="699"
     inkscape:window-x="0"
     inkscape:window-y="0"
     inkscape:window-maximized="1"
     inkscape:current-layer="svg40" />
  <path
     d="m 5.7304686,0.60532225 h 4.5546874 c 2.1875,0 3.945312,1.87529435 3.945312,4.20485845 v 6.4179163 c 0,2.329565 -1.757812,4.204859 -3.945312,4.204859 H 5.7304686 c -2.1835936,0 -3.941406,-1.875294 -3.941406,-4.204859 V 4.8101807 c 0,-2.3295641 1.7578124,-4.20485845 3.941406,-4.20485845 z m 0,0"
     fill-opacity="0.011765"
     stroke="#000000"
     stroke-width="1.1"
     id="path32" />
  <rect
     style="fill:#000000;fill-opacity:0.01;stroke:#000000;stroke-width:0;paint-order:markers fill stroke;stop-color:#000000;stroke-dasharray:none"
     id="rect1757"
     width="0.24934348"
     height="5.1660976"
     x="-3.4747899"
     y="11.790966"
     rx="3.2770426"
     ry="3.2770431" />
  <rect
     style="fill:#000000;fill-opacity:0.01;stroke:#000000;stroke-width:0;stroke-dasharray:none;paint-order:markers fill stroke;stop-color:#000000"
     id="rect1761"
     width="4.0818014"
     height="5.6344538"
     x="23.801733"
     y="4.6664915"
     rx="3.2770426"
     ry="3.2770431" />
  <rect
     style="fill:#000000;fill-opacity:1;stroke:#000000;stroke-width:0.5;stroke-dasharray:none;paint-order:markers fill stroke;stop-color:#000000"
     id="rect2563"
     width="4.8102775"
     height="1.0932256"
     x="-11.8966"
     y="-11.472886"
     rx="0.76239461"
     ry="1.0932256"
     transform="matrix(0,-1,-1,0,0,0)" />
  <rect
     style="fill:#000000;fill-opacity:1;stroke:#000000;stroke-width:0.5;stroke-dasharray:none;paint-order:markers fill stroke;stop-color:#000000"
     id="rect2563-3"
     width="4.8102775"
     height="1.0932256"
     x="-11.874672"
     y="-8.5147715"
     rx="0.76239461"
     ry="1.0932256"
     transform="matrix(0,-1,-1,0,0,0)" />
  <rect
     style="fill:#000000;fill-opacity:1;stroke:#000000;stroke-width:0.5;stroke-dasharray:none;paint-order:markers fill stroke;stop-color:#000000"
     id="rect2563-6"
     width="4.8102775"
     height="1.0932256"
     x="-11.8966"
     y="-5.4728861"
     rx="0.76239461"
     ry="1.0932256"
     transform="matrix(0,-1,-1,0,0,0)" />
</svg>
