<?xml version="1.0" encoding="UTF-8"?>
<svg height="128px" viewBox="0 0 128 128" width="128px" xmlns="http://www.w3.org/2000/svg" xmlns:xlink="http://www.w3.org/1999/xlink">
    <linearGradient id="a" gradientTransform="matrix(0.196428 0 0 0.342105 2.59729 273.740051)" gradientUnits="userSpaceOnUse" x1="88.595886" x2="536.595886" y1="-449.394012" y2="-449.394012">
        <stop offset="0" stop-color="#f6d32d"/>
        <stop offset="0.0500001" stop-color="#f5c211"/>
        <stop offset="0.099807" stop-color="#e5a50a"/>
        <stop offset="0.900001" stop-color="#e5a50a"/>
        <stop offset="0.950001" stop-color="#f5c211"/>
        <stop offset="1" stop-color="#f6d32d"/>
    </linearGradient>
    <clipPath id="b">
        <rect height="128" width="128"/>
    </clipPath>
    <clipPath id="c">
        <rect height="128" width="128"/>
    </clipPath>
    <filter id="d" height="100%" width="100%" x="0%" y="0%">
        <feColorMatrix in="SourceGraphic" type="matrix" values="0 0 0 0 1 0 0 0 0 1 0 0 0 0 1 0 0 0 1 0"/>
    </filter>
    <mask id="e">
        <g clip-path="url(#c)" filter="url(#d)">
            <g clip-path="url(#b)">
                <path d="m 28 16 h 72 c 4.417969 0 8 3.582031 8 8 v 88 c 0 4.417969 -3.582031 8 -8 8 h -72 c -4.417969 0 -8 -3.582031 -8 -8 v -88 c 0 -4.417969 3.582031 -8 8 -8 z m 0 0" fill="url(#a)"/>
                <path d="m 28 8 h 72 c 4.417969 0 8 3.582031 8 8 v 92 c 0 4.417969 -3.582031 8 -8 8 h -72 c -4.417969 0 -8 -3.582031 -8 -8 v -92 c 0 -4.417969 3.582031 -8 8 -8 z m 0 0" fill="#99c1f1"/>
                <path d="m 28 26.742188 h 72 c 4.417969 0 8 2.960937 8 6.609374 v 76.035157 c 0 3.652343 -3.582031 6.613281 -8 6.613281 h -72 c -4.417969 0 -8 -2.960938 -8 -6.613281 v -76.035157 c 0 -3.648437 3.582031 -6.609374 8 -6.609374 z m 0 0" fill="#f9f06b"/>
                <path d="m 41.007812 50.324219 c 3.046876 0 5.519532 2.960937 5.519532 6.613281 v 33.070312 c 0 3.648438 -2.472656 6.609376 -5.519532 6.609376 c -3.046874 0 -5.515624 -2.960938 -5.515624 -6.609376 v -33.070312 c 0 -3.652344 2.46875 -6.613281 5.515624 -6.613281 z m 0 0" fill="#f5c211"/>
                <path d="m 63.007812 50.324219 c 3.046876 0 5.519532 2.960937 5.519532 6.613281 v 33.070312 c 0 3.648438 -2.472656 6.609376 -5.519532 6.609376 c -3.046874 0 -5.515624 -2.960938 -5.515624 -6.609376 v -33.070312 c 0 -3.652344 2.46875 -6.613281 5.515624 -6.613281 z m 0 0" fill="#f5c211"/>
                <path d="m 87.007812 50.324219 c 3.046876 0 5.519532 2.960937 5.519532 6.613281 v 33.070312 c 0 3.648438 -2.472656 6.609376 -5.519532 6.609376 c -3.046874 0 -5.515624 -2.960938 -5.515624 -6.609376 v -33.070312 c 0 -3.652344 2.46875 -6.613281 5.515624 -6.613281 z m 0 0" fill="#f5c211"/>
            </g>
        </g>
    </mask>
    <mask id="f">
        <g filter="url(#d)">
            <rect fill-opacity="0.8" height="128" width="128"/>
        </g>
    </mask>
    <linearGradient id="g" gradientTransform="matrix(0 0.37 -0.98462 0 295.38501 -30.360001)" gradientUnits="userSpaceOnUse" x1="300" x2="428" y1="235" y2="235">
        <stop offset="0" stop-color="#f9f06b"/>
        <stop offset="1" stop-color="#f5c211"/>
    </linearGradient>
    <clipPath id="h">
        <rect height="128" width="128"/>
    </clipPath>
    <clipPath id="i">
        <rect height="128" width="128"/>
    </clipPath>
    <path d="m 28 16 h 72 c 4.417969 0 8 3.582031 8 8 v 88 c 0 4.417969 -3.582031 8 -8 8 h -72 c -4.417969 0 -8 -3.582031 -8 -8 v -88 c 0 -4.417969 3.582031 -8 8 -8 z m 0 0" fill="url(#a)"/>
    <path d="m 28 8 h 72 c 4.417969 0 8 3.582031 8 8 v 92 c 0 4.417969 -3.582031 8 -8 8 h -72 c -4.417969 0 -8 -3.582031 -8 -8 v -92 c 0 -4.417969 3.582031 -8 8 -8 z m 0 0" fill="#99c1f1"/>
    <path d="m 28 26.742188 h 72 c 4.417969 0 8 2.960937 8 6.609374 v 76.035157 c 0 3.652343 -3.582031 6.613281 -8 6.613281 h -72 c -4.417969 0 -8 -2.960938 -8 -6.613281 v -76.035157 c 0 -3.648437 3.582031 -6.609374 8 -6.609374 z m 0 0" fill="#f9f06b"/>
    <g fill="#f5c211">
        <path d="m 41.007812 50.324219 c 3.046876 0 5.519532 2.960937 5.519532 6.613281 v 33.070312 c 0 3.648438 -2.472656 6.609376 -5.519532 6.609376 c -3.046874 0 -5.515624 -2.960938 -5.515624 -6.609376 v -33.070312 c 0 -3.652344 2.46875 -6.613281 5.515624 -6.613281 z m 0 0"/>
        <path d="m 63.007812 50.324219 c 3.046876 0 5.519532 2.960937 5.519532 6.613281 v 33.070312 c 0 3.648438 -2.472656 6.609376 -5.519532 6.609376 c -3.046874 0 -5.515624 -2.960938 -5.515624 -6.609376 v -33.070312 c 0 -3.652344 2.46875 -6.613281 5.515624 -6.613281 z m 0 0"/>
        <path d="m 87.007812 50.324219 c 3.046876 0 5.519532 2.960937 5.519532 6.613281 v 33.070312 c 0 3.648438 -2.472656 6.609376 -5.519532 6.609376 c -3.046874 0 -5.515624 -2.960938 -5.515624 -6.609376 v -33.070312 c 0 -3.652344 2.46875 -6.613281 5.515624 -6.613281 z m 0 0"/>
    </g>
    <g clip-path="url(#i)" mask="url(#e)">
        <g clip-path="url(#h)" mask="url(#f)">
            <path d="m 128 80.640625 v 47.359375 h -128 v -47.359375 z m 0 0" fill="url(#g)"/>
            <path d="m 13.308594 80.640625 l 47.355468 47.359375 h 21.214844 l -47.359375 -47.359375 z m 42.421875 0 l 47.363281 47.359375 h 21.214844 l -47.363282 -47.359375 z m 42.429687 0 l 29.839844 29.839844 v -21.210938 l -8.628906 -8.628906 z m -98.160156 7.90625 v 21.214844 l 18.238281 18.238281 h 21.214844 z m 0 0"/>
        </g>
    </g>
</svg>
