<?xml version="1.0" encoding="UTF-8"?>
<svg height="128px" viewBox="0 0 128 128" width="128px" xmlns="http://www.w3.org/2000/svg" xmlns:xlink="http://www.w3.org/1999/xlink">
    <linearGradient id="a" gradientUnits="userSpaceOnUse" x1="24" x2="104" y1="60" y2="60">
        <stop offset="0" stop-color="#c0bfbc"/>
        <stop offset="0.5" stop-color="#f6f5f4"/>
        <stop offset="1" stop-color="#c0bfbc"/>
    </linearGradient>
    <linearGradient id="b" gradientUnits="userSpaceOnUse">
        <stop offset="0" stop-color="#f6d32d"/>
        <stop offset="0.5" stop-color="#f8e45c"/>
        <stop offset="1" stop-color="#f6d32d"/>
    </linearGradient>
    <linearGradient id="c" x1="24" x2="104" xlink:href="#b" y1="69.333008" y2="69.333008"/>
    <linearGradient id="d" gradientUnits="userSpaceOnUse">
        <stop offset="0" stop-color="#ff7800"/>
        <stop offset="0.5" stop-color="#ffa348"/>
        <stop offset="1" stop-color="#ff7800"/>
    </linearGradient>
    <linearGradient id="e" x1="24" x2="104" xlink:href="#d" y1="95.333008" y2="95.333008"/>
    <linearGradient id="f" gradientUnits="userSpaceOnUse">
        <stop offset="0" stop-color="#9a9996"/>
        <stop offset="0.5" stop-color="#c0bfbc"/>
        <stop offset="1" stop-color="#9a9996"/>
    </linearGradient>
    <linearGradient id="g" x1="32" x2="96" xlink:href="#f" y1="118" y2="118"/>
    <linearGradient id="h" x1="28" x2="100" xlink:href="#f" y1="10" y2="10"/>
    <linearGradient id="i" x1="27.61459343612" x2="101.142813" xlink:href="#d" y1="47.999906" y2="47.999906"/>
    <linearGradient id="j" x1="24" x2="104" xlink:href="#b" y1="48" y2="48"/>
    <path d="m 32 8 l -8 16 v 80 c 0 4.433594 3.566406 8 8 8 h 64 c 4.433594 0 8 -3.566406 8 -8 v -80 l -8 -16 z m 0 0" fill="url(#a)"/>
    <path d="m 48 50.667969 c -8 -0.003907 -16 2.664062 -24 5.332031 v 32 h 80 v -36.523438 c -2.667969 -0.492187 -5.332031 -0.808593 -8 -0.808593 c -8 -0.003907 -16 2.664062 -24 2.664062 c -7.996094 0.003907 -15.996094 -2.664062 -24 -2.664062 z m 0 0" fill="url(#c)"/>
    <path d="m 48 78.667969 c -8 -0.003907 -16 2.664062 -24 5.332031 v 24 c 0 4.417969 3.582031 8 8 8 h 64 c 4.417969 0 8 -3.582031 8 -8 v -28.523438 c -2.664062 -0.496093 -5.332031 -0.808593 -8 -0.808593 c -8 -0.003907 -16 2.664062 -24 2.664062 c -7.996094 0.003907 -15.996094 -2.664062 -24 -2.664062 z m 0 0" fill="url(#e)"/>
    <path d="m 24 106 v 2 c 0 4.417969 3.582031 8 8 8 h 64 c 4.417969 0 8 -3.582031 8 -8 v -2 c 0 4.417969 -3.582031 8 -8 8 h -64 c -4.417969 0 -8 -3.582031 -8 -8 z m 0 0" fill-opacity="0.101961"/>
    <path d="m 32 116 l 1.105469 2.210938 c 0.546875 1.097656 1.667969 1.789062 2.894531 1.789062 h 56 c 1.226562 0 2.347656 -0.691406 2.894531 -1.789062 l 1.105469 -2.210938 z m 0 0" fill="url(#g)"/>
    <path d="m 30 8 h 68 c 1.105469 0 2 0.894531 2 2 s -0.894531 2 -2 2 h -68 c -1.105469 0 -2 -0.894531 -2 -2 s 0.894531 -2 2 -2 z m 0 0" fill="url(#h)"/>
    <path d="m 30 8 c -1.109375 0 -2 0.890625 -2 2 c 0 0.367188 0.105469 0.703125 0.277344 1 c 0.34375 -0.597656 0.980468 -1 1.722656 -1 h 68 c 0.742188 0 1.378906 0.402344 1.722656 1 c 0.171875 -0.296875 0.277344 -0.632812 0.277344 -1 c 0 -1.109375 -0.890625 -2 -2 -2 z m 0 0" fill="#ffffff" fill-opacity="0.2"/>
    <path d="m 90 48 c 0 14.359375 -11.640625 26 -26 26 s -26 -11.640625 -26 -26 s 11.640625 -26 26 -26 s 26 11.640625 26 26 z m 0 0" fill="url(#i)"/>
    <path d="m 65 32.03125 v 11.554688 c 0 0.335937 0.203125 0.636718 0.511719 0.765624 c 0.308593 0.128907 0.664062 0.058594 0.902343 -0.179687 l 8.171876 -8.171875 c 0.78125 -0.78125 0.75 -2.023438 -0.148438 -2.660156 c -2.21875 -1.582032 -4.765625 -2.636719 -7.449219 -3.089844 c -1.089843 -0.183594 -1.988281 0.675781 -1.988281 1.78125 z m -3.988281 -1.738281 c -2.675781 0.445312 -5.21875 1.492187 -7.433594 3.0625 c -0.902344 0.636719 -0.933594 1.875 -0.152344 2.65625 l 8.160157 8.160156 c 0.238281 0.238281 0.59375 0.308594 0.902343 0.179687 c 0.308594 -0.128906 0.511719 -0.429687 0.511719 -0.765624 v -11.511719 c 0 -1.105469 -0.898438 -1.964844 -1.988281 -1.78125 z m 14.988281 7.121093 l -8.171875 8.171876 c -0.238281 0.238281 -0.308594 0.59375 -0.179687 0.902343 c 0.128906 0.308594 0.429687 0.511719 0.765624 0.511719 h 11.554688 c 1.105469 0 1.964844 -0.898438 1.78125 -1.988281 c -0.453125 -2.683594 -1.507812 -5.230469 -3.089844 -7.449219 c -0.636718 -0.898438 -1.878906 -0.929688 -2.660156 -0.148438 z m -26.644531 0.164063 c -1.570313 2.214844 -2.617188 4.757813 -3.0625 7.433594 c -0.183594 1.089843 0.675781 1.988281 1.78125 1.988281 h 11.511719 c 0.335937 0 0.636718 -0.203125 0.765624 -0.511719 c 0.128907 -0.308593 0.058594 -0.664062 -0.179687 -0.902343 l -8.160156 -8.160157 c -0.78125 -0.78125 -2.019531 -0.75 -2.65625 0.152344 z m -3.0625 13.410156 c 0.445312 2.675781 1.492187 5.21875 3.0625 7.433594 c 0.636719 0.902344 1.875 0.933594 2.65625 0.152344 l 8.160156 -8.160157 c 0.238281 -0.238281 0.308594 -0.59375 0.179687 -0.902343 c -0.128906 -0.308594 -0.429687 -0.511719 -0.765624 -0.511719 h -11.511719 c -1.105469 0 -1.964844 0.898438 -1.78125 1.988281 z m 21.535156 -0.574219 l 8.160156 8.160157 c 0.78125 0.78125 2.019531 0.75 2.65625 -0.152344 c 1.570313 -2.214844 2.617188 -4.757813 3.0625 -7.433594 c 0.183594 -1.089843 -0.675781 -1.988281 -1.78125 -1.988281 h -11.511719 c -0.335937 0 -0.636718 0.203125 -0.765624 0.511719 c -0.128907 0.308593 -0.058594 0.664062 0.179687 0.902343 z m -6.242187 1.414063 l -8.160157 8.160156 c -0.78125 0.78125 -0.75 2.019531 0.152344 2.65625 c 2.214844 1.570313 4.757813 2.617188 7.433594 3.0625 c 1.089843 0.183594 1.988281 -0.675781 1.988281 -1.78125 v -11.511719 c 0 -0.335937 -0.203125 -0.636718 -0.511719 -0.765624 c -0.308593 -0.128907 -0.664062 -0.058594 -0.902343 0.179687 z m 3.414062 0.585937 v 11.511719 c 0 1.105469 0.898438 1.964844 1.988281 1.78125 c 2.675781 -0.445312 5.21875 -1.492187 7.433594 -3.0625 c 0.902344 -0.636719 0.933594 -1.875 0.152344 -2.65625 l -8.160157 -8.160156 c -0.238281 -0.238281 -0.59375 -0.308594 -0.902343 -0.179687 c -0.308594 0.128906 -0.511719 0.429687 -0.511719 0.765624 z m -1 -28.414062 c -13.230469 0 -24 10.769531 -24 24 s 10.769531 24 24 24 s 24 -10.769531 24 -24 s -10.769531 -24 -24 -24 z m 0 4 c 11.070312 0 20 8.929688 20 20 s -8.929688 20 -20 20 s -20 -8.929688 -20 -20 s 8.929688 -20 20 -20 z m 0 0" fill="url(#j)"/>
</svg>
